<svg width="86" height="86" viewBox="0 0 86 86" fill="none" xmlns="http://www.w3.org/2000/svg">
<circle cx="43" cy="43" r="42.5" stroke="#D7282F"/>
<g filter="url(#filter0_d)">
<path d="M63.6647 21.0209L63.6646 21.0207C63.5317 20.648 63.2696 20.5 63.0768 20.5H60.531C60.3503 20.5 60.1438 20.6215 60.0042 20.9164C59.8667 21.2071 59.8394 21.593 59.9848 21.9418C59.9848 21.9418 59.9848 21.9418 59.9848 21.9419L59.5233 22.1343C60.8365 25.282 63.0035 33.0967 59.5435 41.3411L63.6647 21.0209ZM63.6647 21.0209C64.833 24.2935 65.5 27.9196 65.5 31.7501C65.5 35.5805 64.8323 39.2066 63.6633 42.4791L63.6632 42.4794C63.5303 42.8521 63.2682 43.0001 63.0754 43.0001H60.5433C60.3606 43.0001 60.1548 42.8779 60.0168 42.5788C59.8804 42.2833 59.8556 41.8897 60.0046 41.5344L63.6647 21.0209ZM33.8603 27.6825L33.8603 27.6826C33.4932 28.9738 33.2986 30.3417 33.2986 31.7501C33.2986 33.1584 33.4932 34.5263 33.8603 35.8175C33.9591 36.1662 33.9052 36.5167 33.7668 36.7685C33.6274 37.0223 33.439 37.1251 33.2732 37.1251H30.8488C30.6352 37.1251 30.3313 36.9341 30.2297 36.4834L30.2296 36.4831C29.8854 34.9604 29.7 33.3753 29.7 31.7501C29.7 30.125 29.8854 28.54 30.2289 27.0164C30.331 26.5657 30.6348 26.375 30.8488 26.375H33.2732C33.4391 26.375 33.6276 26.478 33.7671 26.7317C33.9055 26.9836 33.9594 27.334 33.8603 27.6825ZM22.3318 21.0225L22.3319 21.0223C22.4649 20.6485 22.7279 20.5 22.9203 20.5H25.4596C25.64 20.5 25.8454 20.6211 25.9842 20.9176C26.121 21.2101 26.1475 21.5991 26.0013 21.9506C24.7883 24.8673 22.3627 32.8053 26.0137 41.5472C26.1605 41.8992 26.1342 42.2889 25.9974 42.5818C25.8587 42.8789 25.653 43.0001 25.4726 43.0001H22.9684C22.7796 43.0001 22.5216 42.8562 22.3881 42.4899L22.388 42.4896C20.7208 37.9247 20.5 33.9875 20.5 31.7501C20.5 27.9204 21.1656 24.2951 22.3318 21.0225ZM52.1397 35.8176L52.1397 35.8176C52.5068 34.5263 52.7014 33.1584 52.7014 31.7501C52.7014 30.3418 52.5068 28.974 52.1398 27.6828C52.0409 27.3341 52.0948 26.9836 52.2332 26.7316C52.3726 26.4779 52.561 26.375 52.7268 26.375H55.1512C55.3651 26.375 55.6687 26.5655 55.7703 27.0166L55.7704 27.0171C56.1146 28.5397 56.3 30.1248 56.3 31.7501C56.3 33.3755 56.1153 34.9605 55.7711 36.483C55.6689 36.9349 55.3656 37.1251 55.1512 37.1251H52.7268C52.5609 37.1251 52.3723 37.0222 52.2329 36.7684C52.0945 36.5166 52.0406 36.1662 52.1397 35.8176ZM46.3515 34.8294L46.2505 35.0177L46.3168 35.2208L55.6964 63.9909C55.6964 63.9909 55.6964 63.991 55.6964 63.991C55.885 64.5702 55.6369 65.1452 55.3179 65.3152L53.1968 66.4452L53.4319 66.8865L53.1968 66.4452C53.056 66.5202 52.9167 66.5158 52.7851 66.4467C52.6454 66.3732 52.4926 66.2113 52.4044 65.941L48.8682 55.0952L48.7557 54.7502H48.3928H37.6065H37.2436L37.1311 55.0953L33.5956 65.9411L33.5955 65.9413C33.5078 66.2108 33.355 66.3727 33.2151 66.4464C33.0832 66.5157 32.9437 66.5201 32.8032 66.4452L32.5681 66.8865L32.8032 66.4452L30.6821 65.3152C30.3628 65.145 30.1145 64.5698 30.3035 63.9913L30.3036 63.991L39.6832 35.2208L39.7495 35.0177L39.6485 34.8294C39.1819 33.9596 38.9029 32.901 38.9029 31.7501C38.9029 28.6601 40.8447 26.375 43 26.375C45.1559 26.375 47.0971 28.66 47.0971 31.7501C47.0971 32.901 46.8181 33.9596 46.3515 34.8294ZM39.0473 49.2202L38.8338 49.8752H39.5227H46.4773H47.1662L46.9527 49.2202L43.4754 38.5543L43 37.0961L42.5246 38.5543L39.0473 49.2202Z" stroke="#FD0002"/>
</g>
<defs>
<filter id="filter0_d" x="16" y="20" width="54" height="55" filterUnits="userSpaceOnUse" color-interpolation-filters="sRGB">
<feFlood flood-opacity="0" result="BackgroundImageFix"/>
<feColorMatrix in="SourceAlpha" type="matrix" values="0 0 0 0 0 0 0 0 0 0 0 0 0 0 0 0 0 0 127 0"/>
<feOffset dy="4"/>
<feGaussianBlur stdDeviation="2"/>
<feColorMatrix type="matrix" values="0 0 0 0 0 0 0 0 0 0 0 0 0 0 0 0 0 0 0.25 0"/>
<feBlend mode="normal" in2="BackgroundImageFix" result="effect1_dropShadow"/>
<feBlend mode="normal" in="SourceGraphic" in2="effect1_dropShadow" result="shape"/>
</filter>
</defs>
</svg>
