<svg width="46" height="38" viewBox="0 0 46 38" fill="none" xmlns="http://www.w3.org/2000/svg">
<path d="M36.6913 17.3646L45.9083 0L26.0375 3.46145L35.0404 7.74846L36.6913 17.3646Z" fill="#FF0000" fill-opacity="0.34466"/>
<path fill-rule="evenodd" clip-rule="evenodd" d="M19.7794 11.7534C19.9736 8.93006 21.4686 6.23522 24.0485 4.61452C28.3345 1.92195 33.9918 3.2137 36.6843 7.49973C39.3769 11.7858 38.0851 17.443 33.7991 20.1356C32.9229 20.686 31.9894 21.07 31.0357 21.2958V17.8621C31.3597 17.7285 31.6771 17.5656 31.9844 17.3725C34.8328 15.5831 35.7303 11.8856 33.9891 9.11386C32.2478 6.34214 28.5272 5.54583 25.6788 7.33525C24.0479 8.35978 23.0566 10.0098 22.8339 11.7534H19.7794Z" fill="#FF0000"/>
<path d="M16.6698 37C25.324 37 32.3396 34.8364 32.3396 32.1675C32.3396 29.4986 25.324 27.335 16.6698 27.335C8.01561 27.335 1 29.4986 1 32.1675C1 34.8364 8.01561 37 16.6698 37Z" stroke="#FF0000" stroke-opacity="0.417476" stroke-width="1.22"/>
<path d="M5.84326 12.7569L31.3979 12.7568L28.8558 17.7072L21.6309 17.841L19.3564 29.6148L15.6102 33.4948L13.3357 29.481L15.6102 17.4396H8.38534L5.84326 12.7569Z" fill="#FF0000"/>
</svg>
