<svg width="61" height="50" viewBox="0 0 61 50" fill="none" xmlns="http://www.w3.org/2000/svg">
<path d="M48.7029 23.1676L61 0L34.4887 4.61821L46.5003 10.3379L48.7029 23.1676Z" fill="#FF0000" fill-opacity="0.34466"/>
<path fill-rule="evenodd" clip-rule="evenodd" d="M26.1392 15.6813C26.3983 11.9143 28.3929 8.31884 31.835 6.15649C37.5533 2.56411 45.1011 4.28754 48.6935 10.0059C52.2859 15.7243 50.5625 23.2721 44.8441 26.8645C43.6751 27.5989 42.4297 28.1111 41.1572 28.4125V23.8314C41.5894 23.6532 42.0129 23.4358 42.4229 23.1782C46.2232 20.7908 47.4207 15.8576 45.0976 12.1596C42.7744 8.46163 37.8104 7.3992 34.0101 9.78663C31.8342 11.1535 30.5116 13.355 30.2145 15.6813H26.1392Z" fill="#FF0000"/>
<path d="M21.9904 49.3649C33.5367 49.3649 42.8969 46.4782 42.8969 42.9174C42.8969 39.3565 33.5367 36.4699 21.9904 36.4699C10.4441 36.4699 1.08401 39.3565 1.08401 42.9174C1.08401 46.4782 10.4441 49.3649 21.9904 49.3649Z" stroke="#FF0000" stroke-opacity="0.417476" stroke-width="1.22"/>
<path d="M7.54584 17.0201L41.6404 17.02L38.2488 23.6247L28.6095 23.8032L25.5749 39.5117L20.5767 44.6883L17.5422 39.3331L20.5767 23.2677H10.9374L7.54584 17.0201Z" fill="#FF0000"/>
</svg>
