<svg width="196" height="162" viewBox="0 0 196 162" fill="none" xmlns="http://www.w3.org/2000/svg">
<path d="M155.802 75.3145L195.778 0L109.594 15.0131L148.642 33.607L155.802 75.3145Z" fill="white" fill-opacity="0.34466"/>
<path fill-rule="evenodd" clip-rule="evenodd" d="M82.4508 50.9766C83.2933 38.7309 89.7775 27.0428 100.967 20.0134C119.556 8.33507 144.093 13.9377 155.772 32.5272C167.45 51.1168 161.847 75.6538 143.258 87.3321C139.457 89.7195 135.409 91.3847 131.272 92.3643V77.4714C132.677 76.8919 134.054 76.1851 135.387 75.3479C147.741 67.5867 151.634 51.5497 144.082 39.5281C136.529 27.5064 120.392 24.0526 108.038 31.8138C100.964 36.2574 96.6647 43.414 95.6988 50.9766H82.4508Z" fill="white"/>
<path d="M68.9638 160.478C106.499 160.478 136.928 151.094 136.928 139.518C136.928 127.942 106.499 118.558 68.9638 118.558C31.4284 118.558 1 127.942 1 139.518C1 151.094 31.4284 160.478 68.9638 160.478Z" stroke="white" stroke-opacity="0.417476" stroke-width="1.22"/>
<path d="M22.0065 55.3297L132.843 55.3296L121.817 76.8005L90.4814 77.3807L80.6164 128.447L64.3681 145.275L54.503 127.866L64.3681 75.6398H33.0321L22.0065 55.3297Z" fill="white"/>
</svg>
