<svg width="28" height="31" viewBox="0 0 28 31" fill="none" xmlns="http://www.w3.org/2000/svg">
<path d="M26.9828 1.49008L21.2954 0.0369821C20.6775 -0.120436 20.0431 0.236783 19.7916 0.878566L17.1666 7.65967C16.9369 8.25302 17.0901 8.94929 17.544 9.35495L20.858 12.358C18.8892 17.0019 15.4495 20.8647 11.1675 23.0867L8.45509 19.4176C8.08322 18.9151 7.45979 18.7456 6.92387 18.9999L0.798991 21.9061C0.213847 22.1906 -0.108803 22.8929 0.0333814 23.5771L1.34585 29.8739C1.48257 30.5277 2.00756 31 2.62552 31C16.6307 31 28 18.4368 28 2.90684C28 2.22873 27.5789 1.64144 26.9828 1.49008Z" fill="#FD0002"/>
</svg>
