<svg width="54" height="55" viewBox="0 0 54 55" fill="none" xmlns="http://www.w3.org/2000/svg">
<g filter="url(#filter0_d)">
<path d="M47.6647 1.02091L47.6646 1.02071C47.5317 0.648013 47.2696 0.5 47.0768 0.5H44.531C44.3503 0.5 44.1438 0.62152 44.0042 0.916438C43.8667 1.20713 43.8394 1.59301 43.9848 1.94178C43.9848 1.94181 43.9848 1.94183 43.9848 1.94185L43.5233 2.13429C44.8365 5.28203 47.0035 13.0967 43.5435 21.3411L47.6647 1.02091ZM47.6647 1.02091C48.833 4.2935 49.5 7.91958 49.5 11.7501C49.5 15.5805 48.8323 19.2066 47.6633 22.4791L47.6632 22.4794C47.5303 22.8521 47.2682 23.0001 47.0754 23.0001H44.5433C44.3606 23.0001 44.1548 22.8779 44.0168 22.5788C43.8804 22.2833 43.8556 21.8897 44.0046 21.5344L47.6647 1.02091ZM17.8603 7.68251L17.8603 7.6826C17.4932 8.97381 17.2986 10.3417 17.2986 11.7501C17.2986 13.1584 17.4932 14.5263 17.8603 15.8175C17.9591 16.1662 17.9052 16.5167 17.7668 16.7685C17.6274 17.0223 17.439 17.1251 17.2732 17.1251H14.8488C14.6352 17.1251 14.3313 16.9341 14.2297 16.4834L14.2296 16.4831C13.8854 14.9604 13.7 13.3753 13.7 11.7501C13.7 10.125 13.8854 8.53997 14.2289 7.01639C14.331 6.56572 14.6348 6.37504 14.8488 6.37504H17.2732C17.4391 6.37504 17.6276 6.47798 17.7671 6.73172C17.9055 6.98358 17.9594 7.33395 17.8603 7.68251ZM6.33183 1.02248L6.3319 1.02228C6.46494 0.648467 6.72793 0.5 6.92028 0.5H9.45962C9.63997 0.5 9.84543 0.621122 9.98416 0.917601C10.121 1.21006 10.1475 1.59907 10.0013 1.95056C8.78831 4.86734 6.36266 12.8053 10.0137 21.5472C10.1605 21.8992 10.1342 22.2889 9.9974 22.5818C9.85868 22.8789 9.65303 23.0001 9.47256 23.0001H6.96844C6.77955 23.0001 6.52159 22.8562 6.38813 22.4899L6.388 22.4896C4.72081 17.9247 4.5 13.9875 4.5 11.7501C4.5 7.92039 5.16556 4.29513 6.33183 1.02248ZM36.1397 15.8176L36.1397 15.8176C36.5068 14.5263 36.7014 13.1584 36.7014 11.7501C36.7014 10.3418 36.5068 8.97398 36.1398 7.68285C36.0409 7.33409 36.0948 6.98355 36.2332 6.73163C36.3726 6.47788 36.561 6.37504 36.7268 6.37504H39.1512C39.3651 6.37504 39.6687 6.56546 39.7703 7.01661L39.7704 7.0171C40.1146 8.53972 40.3 10.1248 40.3 11.7501C40.3 13.3755 40.1153 14.9605 39.7711 16.483C39.6689 16.9349 39.3656 17.1251 39.1512 17.1251H36.7268C36.5609 17.1251 36.3723 17.0222 36.2329 16.7684C36.0945 16.5166 36.0406 16.1662 36.1397 15.8176ZM30.3515 14.8294L30.2505 15.0177L30.3168 15.2208L39.6964 43.9909C39.6964 43.9909 39.6964 43.991 39.6964 43.991C39.885 44.5702 39.6369 45.1452 39.3179 45.3152L37.1968 46.4452L37.4319 46.8865L37.1968 46.4452C37.056 46.5202 36.9167 46.5158 36.7851 46.4467C36.6454 46.3732 36.4926 46.2113 36.4044 45.941L32.8682 35.0952L32.7557 34.7502H32.3928H21.6065H21.2436L21.1311 35.0953L17.5956 45.9411L17.5955 45.9413C17.5078 46.2108 17.355 46.3727 17.2151 46.4464C17.0832 46.5157 16.9437 46.5201 16.8032 46.4452L16.5681 46.8865L16.8032 46.4452L14.6821 45.3152C14.3628 45.145 14.1145 44.5698 14.3035 43.9913L14.3036 43.991L23.6832 15.2208L23.7495 15.0177L23.6485 14.8294C23.1819 13.9596 22.9029 12.901 22.9029 11.7501C22.9029 8.66007 24.8447 6.37504 27 6.37504C29.1559 6.37504 31.0971 8.66002 31.0971 11.7501C31.0971 12.901 30.8181 13.9596 30.3515 14.8294ZM23.0473 29.2202L22.8338 29.8752H23.5227H30.4773H31.1662L30.9527 29.2202L27.4754 18.5543L27 17.0961L26.5246 18.5543L23.0473 29.2202Z" stroke="#FD0002"/>
</g>
<defs>
<filter id="filter0_d" x="0" y="0" width="54" height="55" filterUnits="userSpaceOnUse" color-interpolation-filters="sRGB">
<feFlood flood-opacity="0" result="BackgroundImageFix"/>
<feColorMatrix in="SourceAlpha" type="matrix" values="0 0 0 0 0 0 0 0 0 0 0 0 0 0 0 0 0 0 127 0"/>
<feOffset dy="4"/>
<feGaussianBlur stdDeviation="2"/>
<feColorMatrix type="matrix" values="0 0 0 0 0 0 0 0 0 0 0 0 0 0 0 0 0 0 0.25 0"/>
<feBlend mode="normal" in2="BackgroundImageFix" result="effect1_dropShadow"/>
<feBlend mode="normal" in="SourceGraphic" in2="effect1_dropShadow" result="shape"/>
</filter>
</defs>
</svg>
