<svg width="28" height="23" viewBox="0 0 28 23" fill="none" xmlns="http://www.w3.org/2000/svg">
<path d="M27.4695 7.59479C27.6828 7.40911 28 7.58281 28 7.8763V20.125C28 21.7122 26.8242 23 25.375 23H2.625C1.17578 23 0 21.7122 0 20.125V7.88229C0 7.58281 0.311719 7.4151 0.530469 7.60078C1.75547 8.64297 3.37969 9.96667 8.95781 14.4049C10.1117 15.3273 12.0586 17.268 14 17.256C15.9523 17.274 17.9375 15.2914 19.0477 14.4049C24.6258 9.96667 26.2445 8.63698 27.4695 7.59479ZM14 15.3333C15.2688 15.3573 17.0953 13.5844 18.0141 12.8536C25.2711 7.08568 25.8234 6.58255 27.4969 5.14505C27.8141 4.87552 28 4.45625 28 4.01302V2.875C28 1.28776 26.8242 0 25.375 0H2.625C1.17578 0 0 1.28776 0 2.875V4.01302C0 4.45625 0.185937 4.86953 0.503125 5.14505C2.17656 6.57656 2.72891 7.08568 9.98594 12.8536C10.9047 13.5844 12.7312 15.3573 14 15.3333Z" fill="#FD0002"/>
</svg>
