<svg width="68" height="69" viewBox="0 0 68 69" fill="none" xmlns="http://www.w3.org/2000/svg">
<g filter="url(#filter0_d)">
<path d="M39.533 54.1123L39.2659 54.1706C37.5693 54.5409 35.8109 54.75 34 54.75H33.5V54.25V50.9345V50.9012L33.5044 50.8682C33.5892 50.234 33.3967 49.2347 32.928 48.1351C32.4655 47.0503 31.7632 45.9371 30.9088 45.0818C30.0892 44.2613 29.629 43.1485 29.629 41.988V38.1118C29.629 36.8828 28.9681 35.7554 27.8959 35.1624L27.8957 35.1622C26.158 34.1999 23.6927 32.8586 22.0084 32.0096C22.0084 32.0096 22.0084 32.0096 22.0084 32.0096L22.2335 31.5631C20.8448 30.8632 19.5601 29.9719 18.4048 28.9293L39.533 54.1123ZM39.533 54.1123L39.6281 53.8559L41.7317 48.1828C41.9251 47.6618 42.0632 47.1146 42.1936 46.5982C42.2371 46.4263 42.2796 46.2578 42.323 46.0948C42.4301 45.6933 42.6411 45.3227 42.9406 45.0218C43.3413 44.6195 43.8353 44.1274 44.3072 43.6575C44.8797 43.0875 45.3339 42.4101 45.644 41.6639C45.9541 40.9178 46.1138 40.1177 46.1141 39.3096V39.3095C46.1143 38.1975 45.6732 37.1308 44.8877 36.3442L44.8876 36.3441L43.2316 34.6863L43.2313 34.686C42.4107 33.866 41.3002 33.405 40.1403 33.405H32.2005C32.0319 33.291 31.8151 33.0728 31.5477 32.7437C31.3287 32.4742 31.1067 32.1707 30.8729 31.8512C30.7781 31.7216 30.6813 31.5893 30.582 31.4556C30.2486 31.0065 29.8892 30.5448 29.5218 30.1938C29.1718 29.8594 28.7184 29.53 28.1948 29.53C26.9999 29.53 25.8209 29.2515 24.7522 28.716L24.752 28.7159L23.4121 28.0452C23.0907 27.884 22.8883 27.5565 22.8883 27.1977V27.1975C22.8882 26.9986 22.9507 26.8047 23.0668 26.6434C23.1829 26.4821 23.3467 26.3616 23.5349 26.2987C23.5349 26.2987 23.5349 26.2987 23.5349 26.2987L27.3051 25.0407C27.3051 25.0407 27.3052 25.0407 27.3052 25.0406C27.5419 24.9619 27.7949 24.9462 28.0395 24.995C28.2841 25.0438 28.5119 25.1555 28.7004 25.3192L29.8226 26.2949C30.0886 26.5263 30.43 26.655 30.7847 26.655H31.4669C32.5582 26.655 33.2664 25.505 32.7792 24.5294C32.7792 24.5294 32.7792 24.5294 32.7792 24.5294L30.8935 20.753L39.533 54.1123ZM18.0698 29.3005L17.9734 29.2136L17.9728 29.2131C17.1172 28.4399 16.3575 27.5666 15.71 26.6119C14.5746 24.9433 12.7254 22.1994 11.5245 20.4173L11.369 20.1866L11.4831 19.9329C14.01 14.3103 18.5638 9.79453 24.2241 7.3409L24.4382 7.24809L24.6469 7.35257L27.5512 8.80686C27.5512 8.80688 27.5513 8.80689 27.5513 8.8069C28.5054 9.28439 29.629 8.5909 29.629 7.52113V6.15277V5.7271L30.0493 5.65918C31.0356 5.49976 32.0395 5.3984 33.0607 5.36008L33.2789 5.35189L33.4332 5.50636L36.8566 8.93331C37.8076 9.88537 37.8076 11.4283 36.8566 12.3804L36.8562 12.3808L36.2892 12.9471L36.2888 12.9475L35.0384 14.1992C34.856 14.3818 34.856 14.6795 35.0384 14.8621L35.6058 15.43C36.1782 16.003 36.1782 16.9333 35.6058 17.5063L34.638 18.475L34.6377 18.4754C34.3623 18.7505 33.9889 18.9051 33.5996 18.905C33.5995 18.905 33.5995 18.905 33.5994 18.905H32.5121C32.3909 18.905 32.2742 18.9522 32.186 19.038L32.1859 19.0381L30.9861 20.2065C30.9149 20.2759 30.8675 20.3663 30.8508 20.4645C30.8342 20.5626 30.8491 20.6635 30.8933 20.7525L18.0698 29.3005ZM18.0698 29.3005C18.0699 29.3006 18.07 29.3006 18.0701 29.3007C18.0701 29.3007 18.0701 29.3007 18.0702 29.3008L18.0698 29.3005ZM54.322 32.7262L54.3222 32.7263L57.8521 33.609L58.3975 33.7455L58.4693 33.1878C58.6016 32.1598 58.6935 31.1092 58.6935 30.0312C58.6935 26.0585 57.7299 22.3154 56.0614 18.9897L55.8374 18.5432L55.3907 18.7668L53.8215 19.5522C53.8215 19.5523 53.8214 19.5523 53.8213 19.5523C53.2897 19.8171 52.839 20.2176 52.5108 20.7091L52.5105 20.7096L50.1409 24.2671C50.1409 24.2671 50.1408 24.2672 50.1408 24.2672C50.1408 24.2673 50.1407 24.2673 50.1407 24.2673C49.7678 24.8266 49.5688 25.4839 49.5688 26.1562C49.5688 26.8287 49.7678 27.4861 50.1409 28.0454L52.3156 31.3109C52.7852 32.0167 53.5013 32.5205 54.322 32.7262ZM4.5 30.0312C4.5 13.7207 17.7077 0.5 34 0.5C50.2923 0.5 63.5 13.7207 63.5 30.0312C63.5 46.3418 50.2923 59.5625 34 59.5625C17.7077 59.5625 4.5 46.3418 4.5 30.0312Z" stroke="#FD0002"/>
</g>
<defs>
<filter id="filter0_d" x="0" y="0" width="68" height="68.0625" filterUnits="userSpaceOnUse" color-interpolation-filters="sRGB">
<feFlood flood-opacity="0" result="BackgroundImageFix"/>
<feColorMatrix in="SourceAlpha" type="matrix" values="0 0 0 0 0 0 0 0 0 0 0 0 0 0 0 0 0 0 127 0"/>
<feOffset dy="4"/>
<feGaussianBlur stdDeviation="2"/>
<feColorMatrix type="matrix" values="0 0 0 0 0 0 0 0 0 0 0 0 0 0 0 0 0 0 0.25 0"/>
<feBlend mode="normal" in2="BackgroundImageFix" result="effect1_dropShadow"/>
<feBlend mode="normal" in="SourceGraphic" in2="effect1_dropShadow" result="shape"/>
</filter>
</defs>
</svg>
