<svg width="86" height="86" viewBox="0 0 86 86" fill="none" xmlns="http://www.w3.org/2000/svg">
<circle cx="43" cy="43" r="42.5" stroke="#D7282F"/>
<g filter="url(#filter0_d)">
<path d="M48.533 67.1123L48.2659 67.1706C46.5693 67.5409 44.8109 67.75 43 67.75H42.5V67.25V63.9345V63.9012L42.5044 63.8682C42.5892 63.234 42.3967 62.2347 41.928 61.1351C41.4655 60.0503 40.7632 58.9371 39.9088 58.0818C39.0892 57.2613 38.629 56.1485 38.629 54.988V51.1118C38.629 49.8828 37.9681 48.7554 36.8959 48.1624L36.8957 48.1622C35.158 47.1999 32.6927 45.8586 31.0084 45.0096C31.0084 45.0096 31.0084 45.0096 31.0084 45.0096L31.2335 44.5631C29.8448 43.8632 28.5601 42.9719 27.4048 41.9293L48.533 67.1123ZM48.533 67.1123L48.6281 66.8559L50.7317 61.1828C50.9251 60.6618 51.0632 60.1146 51.1936 59.5982C51.2371 59.4263 51.2796 59.2578 51.323 59.0948C51.4301 58.6933 51.6411 58.3227 51.9406 58.0218C52.3413 57.6195 52.8353 57.1274 53.3072 56.6575C53.8797 56.0875 54.3339 55.4101 54.644 54.6639C54.9541 53.9178 55.1138 53.1177 55.1141 52.3096V52.3095C55.1143 51.1975 54.6732 50.1308 53.8877 49.3442L53.8876 49.3441L52.2316 47.6863L52.2313 47.686C51.4107 46.866 50.3002 46.405 49.1403 46.405H41.2005C41.0319 46.291 40.8151 46.0728 40.5477 45.7437C40.3287 45.4742 40.1067 45.1707 39.8729 44.8512C39.7781 44.7216 39.6813 44.5893 39.582 44.4556C39.2486 44.0065 38.8892 43.5448 38.5218 43.1938C38.1718 42.8594 37.7184 42.53 37.1948 42.53C35.9999 42.53 34.8209 42.2515 33.7522 41.716L33.752 41.7159L32.4121 41.0452C32.0907 40.884 31.8883 40.5565 31.8883 40.1977V40.1975C31.8882 39.9986 31.9507 39.8047 32.0668 39.6434C32.1829 39.4821 32.3467 39.3616 32.5349 39.2987C32.5349 39.2987 32.5349 39.2987 32.5349 39.2987L36.3051 38.0407C36.3051 38.0407 36.3052 38.0407 36.3052 38.0406C36.5419 37.9619 36.7949 37.9462 37.0395 37.995C37.2841 38.0438 37.5119 38.1555 37.7004 38.3192L38.8226 39.2949C39.0886 39.5263 39.43 39.655 39.7847 39.655H40.4669C41.5582 39.655 42.2664 38.505 41.7792 37.5294C41.7792 37.5294 41.7792 37.5294 41.7792 37.5294L39.8935 33.753L48.533 67.1123ZM27.0698 42.3005L26.9734 42.2136L26.9728 42.2131C26.1172 41.4399 25.3575 40.5666 24.71 39.6119C23.5746 37.9433 21.7254 35.1994 20.5245 33.4173L20.369 33.1866L20.4831 32.9329C23.01 27.3103 27.5638 22.7945 33.2241 20.3409L33.4382 20.2481L33.6469 20.3526L36.5512 21.8069C36.5512 21.8069 36.5513 21.8069 36.5513 21.8069C37.5054 22.2844 38.629 21.5909 38.629 20.5211V19.1528V18.7271L39.0493 18.6592C40.0356 18.4998 41.0395 18.3984 42.0607 18.3601L42.2789 18.3519L42.4332 18.5064L45.8566 21.9333C46.8076 22.8854 46.8076 24.4283 45.8566 25.3804L45.8562 25.3808L45.2892 25.9471L45.2888 25.9475L44.0384 27.1992C43.856 27.3818 43.856 27.6795 44.0384 27.8621L44.6058 28.43C45.1782 29.003 45.1782 29.9333 44.6058 30.5063L43.638 31.475L43.6377 31.4754C43.3623 31.7505 42.9889 31.9051 42.5996 31.905C42.5995 31.905 42.5995 31.905 42.5994 31.905H41.5121C41.3909 31.905 41.2742 31.9522 41.186 32.038L41.1859 32.0381L39.9861 33.2065C39.9149 33.2759 39.8675 33.3663 39.8508 33.4645C39.8342 33.5626 39.8491 33.6635 39.8933 33.7525L27.0698 42.3005ZM27.0698 42.3005C27.0699 42.3006 27.07 42.3006 27.0701 42.3007C27.0701 42.3007 27.0701 42.3007 27.0702 42.3008L27.0698 42.3005ZM63.322 45.7262L63.3222 45.7263L66.8521 46.609L67.3975 46.7455L67.4693 46.1878C67.6016 45.1598 67.6935 44.1092 67.6935 43.0312C67.6935 39.0585 66.7299 35.3154 65.0614 31.9897L64.8374 31.5432L64.3907 31.7668L62.8215 32.5522C62.8215 32.5523 62.8214 32.5523 62.8213 32.5523C62.2897 32.8171 61.839 33.2176 61.5108 33.7091L61.5105 33.7096L59.1409 37.2671C59.1409 37.2671 59.1408 37.2672 59.1408 37.2672C59.1408 37.2673 59.1407 37.2673 59.1407 37.2673C58.7678 37.8266 58.5688 38.4839 58.5688 39.1562C58.5688 39.8287 58.7678 40.4861 59.1409 41.0454L61.3156 44.3109C61.7852 45.0167 62.5013 45.5205 63.322 45.7262ZM13.5 43.0312C13.5 26.7207 26.7077 13.5 43 13.5C59.2923 13.5 72.5 26.7207 72.5 43.0312C72.5 59.3418 59.2923 72.5625 43 72.5625C26.7077 72.5625 13.5 59.3418 13.5 43.0312Z" stroke="#FD0002"/>
</g>
<defs>
<filter id="filter0_d" x="9" y="13" width="68" height="68.0625" filterUnits="userSpaceOnUse" color-interpolation-filters="sRGB">
<feFlood flood-opacity="0" result="BackgroundImageFix"/>
<feColorMatrix in="SourceAlpha" type="matrix" values="0 0 0 0 0 0 0 0 0 0 0 0 0 0 0 0 0 0 127 0"/>
<feOffset dy="4"/>
<feGaussianBlur stdDeviation="2"/>
<feColorMatrix type="matrix" values="0 0 0 0 0 0 0 0 0 0 0 0 0 0 0 0 0 0 0.25 0"/>
<feBlend mode="normal" in2="BackgroundImageFix" result="effect1_dropShadow"/>
<feBlend mode="normal" in="SourceGraphic" in2="effect1_dropShadow" result="shape"/>
</filter>
</defs>
</svg>
