<svg width="49" height="60" viewBox="0 0 49 60" fill="none" xmlns="http://www.w3.org/2000/svg">
<path d="M20.4673 42C10.1075 40.6552 6.60884 30.9052 6.15446 26.1983V11.4052C6.15446 11.4052 5.80693 10.0615 6.15446 10.0603C6.50199 10.0592 6.84274 10.05 7.17681 10.0335C16.753 9.55942 20.8311 2.99999 21.4897 3C22.1037 3.00001 30.831 9.00327 35.4618 9.94721C35.9711 10.051 36.4309 10.0937 36.8249 10.0603C37.2189 10.027 36.8249 11.4052 36.8249 11.4052V26.1983C34.6439 38.3017 25.0111 41.7759 20.4673 42Z" fill="#FD0002"/>
<path d="M6.15446 11.4052C6.15446 11.4052 5.80693 10.0615 6.15446 10.0603C6.50199 10.0592 6.84274 10.05 7.17681 10.0335M6.15446 11.4052V26.1983C6.60884 30.9052 10.1075 40.6552 20.4673 42C25.0111 41.7759 34.6439 38.3017 36.8249 26.1983V11.4052M6.15446 11.4052L7.17681 10.0335M7.17681 10.0335C16.753 9.55942 20.8311 2.99999 21.4897 3C22.1037 3.00001 30.831 9.00327 35.4618 9.94721M35.4618 9.94721C35.9711 10.051 36.4309 10.0937 36.8249 10.0603C37.2189 10.027 36.8249 11.4052 36.8249 11.4052M35.4618 9.94721L36.8249 11.4052" stroke="#FD0002" stroke-width="5"/>
<g filter="url(#filter0_d)">
<path d="M7.17439 14.4828C7.17439 14.4828 6.78201 12.9669 7.17439 12.9655C7.56676 12.9642 7.95149 12.9539 8.32865 12.9352M7.17439 14.4828V31.1724C7.6874 36.4828 11.6375 47.4828 23.3341 49C28.4641 48.7471 39.3399 44.8276 41.8023 31.1724V14.4828M7.17439 14.4828L8.32865 12.9352M8.32865 12.9352C19.1404 12.4004 23.7448 4.99999 24.4883 5C25.1816 5.00001 35.035 11.7729 40.2633 12.8379M40.2633 12.8379C40.8384 12.955 41.3575 13.0031 41.8023 12.9655C42.2471 12.9279 41.8023 14.4828 41.8023 14.4828M40.2633 12.8379L41.8023 14.4828" stroke="#D7282F" stroke-width="5"/>
</g>
<defs>
<filter id="filter0_d" x="0.500183" y="2.5" width="47.9996" height="57.008" filterUnits="userSpaceOnUse" color-interpolation-filters="sRGB">
<feFlood flood-opacity="0" result="BackgroundImageFix"/>
<feColorMatrix in="SourceAlpha" type="matrix" values="0 0 0 0 0 0 0 0 0 0 0 0 0 0 0 0 0 0 127 0"/>
<feOffset dy="4"/>
<feGaussianBlur stdDeviation="2"/>
<feColorMatrix type="matrix" values="0 0 0 0 0 0 0 0 0 0 0 0 0 0 0 0 0 0 0.25 0"/>
<feBlend mode="normal" in2="BackgroundImageFix" result="effect1_dropShadow"/>
<feBlend mode="normal" in="SourceGraphic" in2="effect1_dropShadow" result="shape"/>
</filter>
</defs>
</svg>
