<svg width="22" height="26" viewBox="0 0 22 26" fill="none" xmlns="http://www.w3.org/2000/svg">
<path d="M9.86952 25.4754C1.54516 14.7789 0 13.6811 0 9.75C0 4.36521 4.92485 0 11 0C17.0752 0 22 4.36521 22 9.75C22 13.6811 20.4548 14.7789 12.1305 25.4754C11.5842 26.1749 10.4157 26.1748 9.86952 25.4754ZM11 13.8125C13.5313 13.8125 15.5833 11.9937 15.5833 9.75C15.5833 7.50633 13.5313 5.6875 11 5.6875C8.46868 5.6875 6.41667 7.50633 6.41667 9.75C6.41667 11.9937 8.46868 13.8125 11 13.8125Z" fill="#FD0002"/>
</svg>
