<svg width="86" height="86" viewBox="0 0 86 86" fill="none" xmlns="http://www.w3.org/2000/svg">
<g filter="url(#filter0_d)">
<path d="M56.25 60.7375V61.5621L56.9812 61.1809C59.8219 59.6997 64.2612 55.4018 64.7101 47.7214L64.7305 47.3712L64.4083 47.2328L56.9474 44.0273L56.25 43.7277V44.4867V60.7375ZM57.4198 40.8899C57.4198 40.8899 57.4199 40.8899 57.42 40.8899L66.419 44.7567C66.4192 44.7568 66.4194 44.7569 66.4197 44.757C67.0668 45.0367 67.5 45.6947 67.5 46.4375C67.5 56.9191 61.2613 62.7116 57.4222 64.3591C57.1616 64.468 56.6564 64.604 56.0789 64.3596C51.2619 62.2871 46 55.844 46 46.4375C46 45.6947 46.4332 45.0367 47.0804 44.757C47.0806 44.7569 47.0808 44.7568 47.081 44.7567L56.078 40.8908C56.0783 40.8907 56.0786 40.8906 56.0789 40.8904C56.6585 40.6451 57.1721 40.7836 57.4198 40.8899ZM45 32C45 37.8456 40.7035 42.5 35.5 42.5C30.2965 42.5 26 37.8456 26 32C26 26.1544 30.2965 21.5 35.5 21.5C40.7035 21.5 45 26.1544 45 32ZM49.7821 64.4495C49.6077 64.4825 49.43 64.5 49.25 64.5H21.75C19.9996 64.5 18.5 62.9221 18.5 60.875V57.3C18.5 51.1537 23.023 46.25 28.5 46.25H29.6871C31.4657 47.126 33.427 47.625 35.5 47.625C37.5723 47.625 39.5411 47.1264 41.3133 46.25H42.5C42.5034 46.25 42.5068 46.25 42.5103 46.2501C42.5041 46.3091 42.5 46.372 42.5 46.4375C42.5 54.3605 45.7475 60.6048 49.7821 64.4495Z" stroke="#FD0002"/>
</g>
<circle cx="43" cy="43" r="42.5" stroke="#D7282F"/>
<defs>
<filter id="filter0_d" x="14" y="21" width="58" height="52" filterUnits="userSpaceOnUse" color-interpolation-filters="sRGB">
<feFlood flood-opacity="0" result="BackgroundImageFix"/>
<feColorMatrix in="SourceAlpha" type="matrix" values="0 0 0 0 0 0 0 0 0 0 0 0 0 0 0 0 0 0 127 0"/>
<feOffset dy="4"/>
<feGaussianBlur stdDeviation="2"/>
<feColorMatrix type="matrix" values="0 0 0 0 0 0 0 0 0 0 0 0 0 0 0 0 0 0 0.25 0"/>
<feBlend mode="normal" in2="BackgroundImageFix" result="effect1_dropShadow"/>
<feBlend mode="normal" in="SourceGraphic" in2="effect1_dropShadow" result="shape"/>
</filter>
</defs>
</svg>
