<svg width="58" height="52" viewBox="0 0 58 52" fill="none" xmlns="http://www.w3.org/2000/svg">
<g filter="url(#filter0_d)">
<path d="M42.25 39.7375V40.5621L42.9812 40.1809C45.8219 38.6997 50.2612 34.4018 50.7101 26.7214L50.7305 26.3712L50.4083 26.2328L42.9474 23.0273L42.25 22.7277V23.4867V39.7375ZM43.4198 19.8899C43.4198 19.8899 43.4199 19.8899 43.42 19.8899L52.419 23.7567C52.4192 23.7568 52.4194 23.7569 52.4197 23.757C53.0668 24.0367 53.5 24.6947 53.5 25.4375C53.5 35.9191 47.2613 41.7116 43.4222 43.3591C43.1616 43.468 42.6564 43.604 42.0789 43.3596C37.2619 41.2871 32 34.844 32 25.4375C32 24.6947 32.4332 24.0367 33.0804 23.757C33.0806 23.7569 33.0808 23.7568 33.081 23.7567L42.078 19.8908C42.0783 19.8907 42.0786 19.8906 42.0789 19.8904C42.6585 19.6451 43.1721 19.7836 43.4198 19.8899ZM31 11C31 16.8456 26.7035 21.5 21.5 21.5C16.2965 21.5 12 16.8456 12 11C12 5.15445 16.2965 0.5 21.5 0.5C26.7035 0.5 31 5.15445 31 11ZM35.7821 43.4495C35.6077 43.4825 35.43 43.5 35.25 43.5H7.75C5.99961 43.5 4.5 41.9221 4.5 39.875V36.3C4.5 30.1537 9.02305 25.25 14.5 25.25H15.6871C17.4657 26.126 19.427 26.625 21.5 26.625C23.5723 26.625 25.5411 26.1264 27.3133 25.25H28.5C28.5034 25.25 28.5068 25.25 28.5103 25.2501C28.5041 25.3091 28.5 25.372 28.5 25.4375C28.5 33.3605 31.7475 39.6048 35.7821 43.4495Z" stroke="#FD0002"/>
</g>
<defs>
<filter id="filter0_d" x="0" y="0" width="58" height="52" filterUnits="userSpaceOnUse" color-interpolation-filters="sRGB">
<feFlood flood-opacity="0" result="BackgroundImageFix"/>
<feColorMatrix in="SourceAlpha" type="matrix" values="0 0 0 0 0 0 0 0 0 0 0 0 0 0 0 0 0 0 127 0"/>
<feOffset dy="4"/>
<feGaussianBlur stdDeviation="2"/>
<feColorMatrix type="matrix" values="0 0 0 0 0 0 0 0 0 0 0 0 0 0 0 0 0 0 0.25 0"/>
<feBlend mode="normal" in2="BackgroundImageFix" result="effect1_dropShadow"/>
<feBlend mode="normal" in="SourceGraphic" in2="effect1_dropShadow" result="shape"/>
</filter>
</defs>
</svg>
