<svg width="45" height="53" viewBox="0 0 45 53" fill="none" xmlns="http://www.w3.org/2000/svg">
<path d="M37.0357 20.6114H16.5536V12.5287C16.5536 9.42418 19.1717 6.84493 22.4422 6.81357C25.7458 6.78221 28.4464 10.3336 28.4464 13.4616V14.716C28.4464 15.7586 28.4464 20.6114 28.4464 20.6114H35.0536C35.0536 20.6114 35.0536 15.7586 35.0536 14.716V13.4616C35.0536 6.87629 29.3962 0.518306 22.4587 0.541825C15.5212 0.565344 9.94643 5.9904 9.94643 12.5757V20.6114H7.96429C5.77567 20.6114 4 22.2969 4 24.3744V36.9179C4 38.9954 5.77567 40.681 7.96429 40.681H37.0357C39.2243 40.681 41 38.9954 41 36.9179V24.3744C41 22.2969 39.2243 20.6114 37.0357 20.6114ZM25.8036 32.5277C25.8036 34.2603 24.3252 35.6636 22.5 35.6636C20.6748 35.6636 19.1964 34.2603 19.1964 32.5277V28.7647C19.1964 27.0321 20.6748 25.6288 22.5 25.6288C24.3252 25.6288 25.8036 27.0321 25.8036 28.7647V32.5277Z" fill="#D7282F"/>
<g filter="url(#filter0_d)">
<path d="M37.0357 24.6253H16.5536V16.5426C16.5536 13.4381 19.1717 10.8589 22.4422 10.8275C25.7458 10.7961 28.4464 14.3475 28.4464 17.4756V18.7299C28.4464 19.7726 28.4464 24.6253 28.4464 24.6253H35.0536C35.0536 24.6253 35.0536 19.7726 35.0536 18.7299V17.4756C35.0536 10.8902 29.3962 4.53225 22.4587 4.55577C15.5212 4.57929 9.94643 10.0043 9.94643 16.5897V24.6253H7.96429C5.77567 24.6253 4 26.3109 4 28.3884V40.9318C4 43.0094 5.77567 44.6949 7.96429 44.6949H37.0357C39.2243 44.6949 41 43.0094 41 40.9318V28.3884C41 26.3109 39.2243 24.6253 37.0357 24.6253ZM25.8036 36.5416C25.8036 38.2742 24.3252 39.6775 22.5 39.6775C20.6748 39.6775 19.1964 38.2742 19.1964 36.5416V32.7786C19.1964 31.046 20.6748 29.6427 22.5 29.6427C24.3252 29.6427 25.8036 31.046 25.8036 32.7786V36.5416Z" fill="#FD0002"/>
</g>
<defs>
<filter id="filter0_d" x="0" y="4.55571" width="45" height="48.1392" filterUnits="userSpaceOnUse" color-interpolation-filters="sRGB">
<feFlood flood-opacity="0" result="BackgroundImageFix"/>
<feColorMatrix in="SourceAlpha" type="matrix" values="0 0 0 0 0 0 0 0 0 0 0 0 0 0 0 0 0 0 127 0"/>
<feOffset dy="4"/>
<feGaussianBlur stdDeviation="2"/>
<feColorMatrix type="matrix" values="0 0 0 0 0 0 0 0 0 0 0 0 0 0 0 0 0 0 0.25 0"/>
<feBlend mode="normal" in2="BackgroundImageFix" result="effect1_dropShadow"/>
<feBlend mode="normal" in="SourceGraphic" in2="effect1_dropShadow" result="shape"/>
</filter>
</defs>
</svg>
