<svg width="59" height="59" viewBox="0 0 59 59" fill="none" xmlns="http://www.w3.org/2000/svg">
<g filter="url(#filter0_d)">
<path d="M33.8063 26.2032L34.0596 26.4564L34.3809 26.2981C36.9122 25.0507 40.0483 25.4628 42.1462 27.5606L53.5817 38.9961C54.8016 40.216 54.8035 42.2047 53.581 43.4362C53.5809 43.4364 53.5807 43.4365 53.5805 43.4367L48.4352 48.582L48.434 48.5832C47.2142 49.8114 45.227 49.8132 43.9958 48.582L32.5603 37.1464C30.4634 35.0495 30.0592 31.913 31.2985 29.3799L31.4554 29.0591L31.2029 28.8066L20.7927 18.3964L20.6463 18.25H20.4392H14.6247L5.65991 6.29692L11.2966 0.660189L23.2497 9.625V15.4395V15.6466L23.3962 15.793L33.8063 26.2032ZM54.0941 10.7828L54.0946 10.7848C55.2063 15.2506 54.019 20.1662 50.5251 23.6601C49.3898 24.7954 48.0893 25.6572 46.7108 26.2969L45.0603 24.6464C43.0132 22.5994 40.2883 21.4727 37.3923 21.4727C36.6441 21.4727 35.8816 21.5538 35.1399 21.7084L27.4602 14.0288C27.4447 10.5589 28.7103 7.10399 31.3396 4.47465C34.8231 0.991129 39.7383 -0.196903 44.2045 0.904969C44.7245 1.03727 44.8927 1.67531 44.529 2.03902L37.2634 9.30465L37.0815 9.48654L37.1237 9.74028L38.2272 16.3711L38.2859 16.7236L38.6383 16.7823L45.2692 17.8858L45.5229 17.928L45.7048 17.7461L52.9705 10.4805C53.3446 10.1063 53.9736 10.2898 54.0941 10.7828ZM7.17945 39.6895L7.17957 39.6894L21.7088 25.1506L26.6992 30.141C26.2982 32.1139 26.502 34.1207 27.1547 35.9758L15.3102 47.8203C13.0641 50.0664 9.42559 50.0664 7.17945 47.8203C4.93331 45.5741 4.93331 41.9356 7.17945 39.6895ZM8.40597 43.75C8.40597 45.3152 9.68452 46.5938 11.2497 46.5938C12.8261 46.5938 14.0935 45.3138 14.0935 43.75C14.0935 42.175 12.8247 40.9062 11.2497 40.9062C9.67476 40.9062 8.40597 42.175 8.40597 43.75Z" stroke="#FD0002"/>
</g>
<defs>
<filter id="filter0_d" x="0.994843" y="0" width="58.0028" height="58.0049" filterUnits="userSpaceOnUse" color-interpolation-filters="sRGB">
<feFlood flood-opacity="0" result="BackgroundImageFix"/>
<feColorMatrix in="SourceAlpha" type="matrix" values="0 0 0 0 0 0 0 0 0 0 0 0 0 0 0 0 0 0 127 0"/>
<feOffset dy="4"/>
<feGaussianBlur stdDeviation="2"/>
<feColorMatrix type="matrix" values="0 0 0 0 0 0 0 0 0 0 0 0 0 0 0 0 0 0 0.25 0"/>
<feBlend mode="normal" in2="BackgroundImageFix" result="effect1_dropShadow"/>
<feBlend mode="normal" in="SourceGraphic" in2="effect1_dropShadow" result="shape"/>
</filter>
</defs>
</svg>
