<svg width="86" height="86" viewBox="0 0 86 86" fill="none" xmlns="http://www.w3.org/2000/svg">
<circle cx="43" cy="43" r="42.5" stroke="#D7282F"/>
<g filter="url(#filter0_d)">
<path d="M46.8063 45.2032L47.0596 45.4564L47.3809 45.2981C49.9122 44.0507 53.0483 44.4628 55.1462 46.5606L66.5817 57.9961C67.8016 59.216 67.8035 61.2047 66.581 62.4362C66.5809 62.4364 66.5807 62.4365 66.5805 62.4367L61.4352 67.582L61.434 67.5832C60.2142 68.8114 58.227 68.8132 56.9958 67.582L45.5603 56.1464C43.4634 54.0495 43.0592 50.913 44.2985 48.3799L44.4554 48.0591L44.2029 47.8066L33.7927 37.3964L33.6463 37.25H33.4392H27.6247L18.6599 25.2969L24.2966 19.6602L36.2497 28.625V34.4395V34.6466L36.3962 34.793L46.8063 45.2032ZM67.0941 29.7828L67.0946 29.7848C68.2063 34.2506 67.019 39.1662 63.5251 42.6601C62.3898 43.7954 61.0893 44.6572 59.7108 45.2969L58.0603 43.6464C56.0132 41.5994 53.2883 40.4727 50.3923 40.4727C49.6441 40.4727 48.8816 40.5538 48.1399 40.7084L40.4602 33.0288C40.4447 29.5589 41.7103 26.104 44.3396 23.4746C47.8231 19.9911 52.7383 18.8031 57.2045 19.905C57.7245 20.0373 57.8927 20.6753 57.529 21.039L50.2634 28.3046L50.0815 28.4865L50.1237 28.7403L51.2272 35.3711L51.2859 35.7236L51.6383 35.7823L58.2692 36.8858L58.5229 36.928L58.7048 36.7461L65.9705 29.4805C66.3446 29.1063 66.9736 29.2898 67.0941 29.7828ZM20.1795 58.6895L20.1796 58.6894L34.7088 44.1506L39.6992 49.141C39.2982 51.1139 39.502 53.1207 40.1547 54.9758L28.3102 66.8203C26.0641 69.0664 22.4256 69.0664 20.1795 66.8203C17.9333 64.5741 17.9333 60.9356 20.1795 58.6895ZM21.406 62.75C21.406 64.3152 22.6845 65.5938 24.2497 65.5938C25.8261 65.5938 27.0935 64.3138 27.0935 62.75C27.0935 61.175 25.8247 59.9062 24.2497 59.9062C22.6748 59.9062 21.406 61.175 21.406 62.75Z" stroke="#FD0002"/>
</g>
<defs>
<filter id="filter0_d" x="13.9948" y="19" width="58.0028" height="58.0049" filterUnits="userSpaceOnUse" color-interpolation-filters="sRGB">
<feFlood flood-opacity="0" result="BackgroundImageFix"/>
<feColorMatrix in="SourceAlpha" type="matrix" values="0 0 0 0 0 0 0 0 0 0 0 0 0 0 0 0 0 0 127 0"/>
<feOffset dy="4"/>
<feGaussianBlur stdDeviation="2"/>
<feColorMatrix type="matrix" values="0 0 0 0 0 0 0 0 0 0 0 0 0 0 0 0 0 0 0.25 0"/>
<feBlend mode="normal" in2="BackgroundImageFix" result="effect1_dropShadow"/>
<feBlend mode="normal" in="SourceGraphic" in2="effect1_dropShadow" result="shape"/>
</filter>
</defs>
</svg>
