<svg width="52" height="55" viewBox="0 0 52 55" fill="none" xmlns="http://www.w3.org/2000/svg">
<g filter="url(#filter0_d)">
<path d="M4 35.361V47H24.7104V35.361C24.7104 31.2227 23.3568 28.7511 22.68 27.6016C21.0556 26.2222 18.7545 25.0152 17.8069 25.0152V24.153C21.7054 23.1185 23.4922 19.1238 23.8982 17.2558C24.4397 16.9684 25.5226 16.135 25.5226 15.1004C25.5226 14.0659 24.9811 13.5198 24.7104 13.3761C25.0353 9.23784 24.3043 6.76633 23.8982 6.04786C21.6242 0.874963 16.4533 -0.130879 14.1522 0.0128125C12.8527 1.04739 8.46695 1.30604 6.43652 1.30604C6.11165 2.34062 6.84261 4.32356 7.24869 5.18571C5.62435 7.59973 5.75971 11.6518 6.03043 13.3761C5.62435 13.5198 4.81217 14.0659 4.81217 15.1004C4.81217 16.135 6.16579 16.9684 6.84261 17.2558C7.81721 21.3941 11.0388 23.5783 12.5278 24.153V25.0152C11.5532 25.0152 9.68521 26.1647 8.87304 26.7395C5.29948 29.4984 4.13536 33.6367 4 35.361Z" fill="#FD0002"/>
<path d="M47.475 35.361V47H26.7646V35.361C26.7646 31.2227 28.1182 28.7511 28.795 27.6016C30.4194 26.2222 32.7205 25.0152 33.6681 25.0152V24.153C29.7696 23.1185 27.9829 19.1238 27.5768 17.2558C27.0353 16.9684 25.9524 16.135 25.9524 15.1004C25.9524 14.0659 26.4939 13.5198 26.7646 13.3761C26.4397 9.23784 27.1707 6.76633 27.5768 6.04786C29.8509 0.874963 35.0217 -0.130879 37.3228 0.0128125C39.624 0.156504 40.9776 1.29323 42.602 2.58645C42.9268 3.62103 43.3475 3.87968 44.2263 5.18571C45.8507 7.59973 45.7153 10.7897 45.4446 12.514C45.8507 12.6577 46.6628 14.0659 46.6628 15.1004C46.6628 16.135 46.5275 16.9684 45.8507 17.2558C44.8761 21.3941 41.6544 23.5783 40.1654 24.153L38.9472 25.0152C39.9218 25.0152 41.7898 26.1647 42.602 26.7395C46.1755 29.4984 47.3396 33.6367 47.475 35.361Z" fill="#FD0002"/>
<path fill-rule="evenodd" clip-rule="evenodd" d="M5.79182 13.3581C6.94795 13.2614 8.60063 12.749 8.30409 11.2207C7.88587 9.06536 8.30409 6.90998 9.977 7.34106C10.2744 7.41769 10.6114 7.5488 10.9951 7.69808C12.77 8.38859 15.544 9.46776 20.0144 7.34106C20.9903 6.90999 22.7747 7.08243 22.1055 11.2207C22.1055 12.3108 22.7072 14.1243 25.0517 13.133C25.3381 9.14095 24.6066 6.75215 24.1966 6.04786C21.8546 0.874963 16.5292 -0.130879 14.1592 0.0128125C12.8209 1.04739 8.30407 1.30604 6.21294 1.30604C5.87836 2.34062 6.63117 4.32356 7.04939 5.18571C5.38229 7.59136 5.51495 11.6238 5.79182 13.3581Z" fill="#D7282F"/>
<path d="M45.4445 13.7484C40.8964 13.4036 39.3532 9.294 38.9471 7.28232C35.6984 12.8001 30.0133 13.8921 27.5767 13.7484C27.1707 13.7484 26.3585 14.0933 26.3585 15.4727C26.3585 16.8522 27.9828 17.4844 28.3889 17.6281C29.3635 22.1113 32.8559 24.0942 34.4802 24.5253V26.2496C32.8559 26.2496 29.7425 27.9739 28.795 28.8361C26.196 28.4912 25.817 25.8185 25.9524 24.9564V9.86877C26.927 4.351 30.6901 1.53465 32.4498 0.816194C35.2924 -0.0459565 35.6985 -0.477032 40.5715 0.816194C44.4699 1.85077 46.6628 6.42019 47.0689 9.86877V24.9564C47.0689 26.6807 44.6324 27.6865 43.4141 27.9739C42.1146 26.5945 39.8947 26.537 38.9471 26.2496V24.5253C42.1721 23.7091 44.6324 20.2605 44.6324 17.6281C45.8506 16.766 46.6628 16.4367 46.6628 15.4728C46.6628 15.0417 46.6628 14.1795 45.4445 13.7484Z" fill="#D7282F"/>
<path d="M16.1826 40.9521C21.0556 43.3661 22.2739 40.8084 22.2739 39.2278H29.1774C30.8017 43.0213 34.1858 41.958 35.6747 40.9521C34.0504 37.1587 32.2907 37.0725 31.6139 37.5035L32.8321 33.1928C33.2382 29.8879 32.426 23.2781 25.9287 23.2781C19.4313 23.2781 18.3484 29.8879 18.6191 33.1928L20.6495 37.5035C18.7003 36.8138 16.8594 39.5152 16.1826 40.9521Z" fill="#D7282F"/>
<path d="M23.8982 41.8143C20.3247 41.8143 18.3484 45.2629 17.8069 46.9872H34.0504C32.4261 42.504 29.042 41.6706 27.553 41.8143V40.9521C30.152 40.9521 31.8846 37.2162 32.4261 35.3482C32.8321 35.3482 33.2382 34.486 33.2382 34.0549C33.2382 33.7101 32.9675 33.3365 32.8321 33.1928C28.6088 33.5376 26.4701 30.75 25.9287 29.3131C24.6292 32.7617 20.7849 33.3365 19.0252 33.1928C18.3755 33.1928 18.213 33.7676 18.213 34.0549C18.213 35.0895 19.2959 35.6355 19.8374 35.7792C20.1622 38.5381 22.68 40.3774 23.8982 40.9521V41.8143Z" fill="#FD0002"/>
</g>
<defs>
<filter id="filter0_d" x="0" y="0" width="51.475" height="55" filterUnits="userSpaceOnUse" color-interpolation-filters="sRGB">
<feFlood flood-opacity="0" result="BackgroundImageFix"/>
<feColorMatrix in="SourceAlpha" type="matrix" values="0 0 0 0 0 0 0 0 0 0 0 0 0 0 0 0 0 0 127 0"/>
<feOffset dy="4"/>
<feGaussianBlur stdDeviation="2"/>
<feColorMatrix type="matrix" values="0 0 0 0 0 0 0 0 0 0 0 0 0 0 0 0 0 0 0.25 0"/>
<feBlend mode="normal" in2="BackgroundImageFix" result="effect1_dropShadow"/>
<feBlend mode="normal" in="SourceGraphic" in2="effect1_dropShadow" result="shape"/>
</filter>
</defs>
</svg>
